<svg xmlns="http://www.w3.org/2000/svg" xmlns:xlink="http://www.w3.org/1999/xlink" version="1.1" x="0px" y="0px" viewBox="0 0 100 100" enable-background="new 0 0 100 100" xml:space="preserve"><g display="none"><g display="inline"><polygon fill="#000000" stroke="#1D1D1B" stroke-width="0.5" stroke-linecap="round" stroke-linejoin="round" stroke-miterlimit="10" points="    100,38.91 100,60.91 99.93,60.98 94.4,66.52 88.86,72.05 83.33,77.58 77.8,83.12 72.26,88.65 66.73,94.19 61.19,99.72 60.92,100     39.34,100 39.06,99.72 33.52,94.19 27.99,88.65 22.45,83.12 16.92,77.59 11.39,72.05 5.85,66.52 0.32,60.98 0,60.67 0,39.17     0.32,38.85 5.86,33.32 11.39,27.78 16.93,22.25 22.46,16.71 27.99,11.18 33.53,5.65 39.06,0.11 39.17,0 61.09,0 61.19,0.11     66.73,5.64 72.26,11.18 77.8,16.71 83.33,22.24 88.86,27.78 94.4,33.31 99.93,38.85   "></polygon><polyline fill="#000000" stroke="#1D1D1B" stroke-width="0.5" stroke-linecap="round" stroke-linejoin="round" stroke-miterlimit="10" points="    0,49.6 0.31,49.92 0.32,49.92 5.85,55.45 11.39,60.99 16.92,66.52 22.46,72.06 27.99,77.59 33.52,83.12 39.06,88.66 44.59,94.19     50.13,99.73 50.4,100   "></polyline><line fill="#000000" stroke="#1D1D1B" stroke-width="0.5" stroke-linecap="round" stroke-linejoin="round" stroke-miterlimit="10" x1="0.319" y1="38.847" x2="61.193" y2="99.721"></line><line fill="#000000" stroke="#1D1D1B" stroke-width="0.5" stroke-linecap="round" stroke-linejoin="round" stroke-miterlimit="10" x1="5.853" y1="33.312" x2="66.728" y2="94.188"></line><line fill="#000000" stroke="#1D1D1B" stroke-width="0.5" stroke-linecap="round" stroke-linejoin="round" stroke-miterlimit="10" x1="11.387" y1="27.778" x2="72.262" y2="88.652"></line><line fill="#000000" stroke="#1D1D1B" stroke-width="0.5" stroke-linecap="round" stroke-linejoin="round" stroke-miterlimit="10" x1="16.921" y1="22.244" x2="77.796" y2="83.119"></line><line fill="#000000" stroke="#1D1D1B" stroke-width="0.5" stroke-linecap="round" stroke-linejoin="round" stroke-miterlimit="10" x1="22.456" y1="16.71" x2="83.33" y2="77.585"></line><line fill="#000000" stroke="#1D1D1B" stroke-width="0.5" stroke-linecap="round" stroke-linejoin="round" stroke-miterlimit="10" x1="27.99" y1="11.176" x2="88.864" y2="72.051"></line><line fill="#000000" stroke="#1D1D1B" stroke-width="0.5" stroke-linecap="round" stroke-linejoin="round" stroke-miterlimit="10" x1="33.524" y1="5.642" x2="94.398" y2="66.517"></line><line fill="#000000" stroke="#1D1D1B" stroke-width="0.5" stroke-linecap="round" stroke-linejoin="round" stroke-miterlimit="10" x1="39.058" y1="0.107" x2="99.933" y2="60.982"></line><polyline fill="#000000" stroke="#1D1D1B" stroke-width="0.5" stroke-linecap="round" stroke-linejoin="round" stroke-miterlimit="10" points="    50.02,0 50.13,0.11 55.66,5.64 61.2,11.18 66.73,16.71 72.27,22.25 77.8,27.78 83.33,33.31 88.87,38.85 94.4,44.38 99.93,49.91     99.94,49.92 100,49.98   "></polyline><polyline fill="#000000" stroke="#1D1D1B" stroke-width="0.5" stroke-linecap="round" stroke-linejoin="round" stroke-miterlimit="10" points="    100,49.85 99.94,49.91 99.94,49.92 94.4,55.45 88.87,60.99 83.33,66.52 77.8,72.05 72.27,77.59 66.73,83.12 61.2,88.66     55.66,94.19 50.13,99.72 50.13,99.73 49.85,100   "></polyline><line fill="#000000" stroke="#1D1D1B" stroke-width="0.5" stroke-linecap="round" stroke-linejoin="round" stroke-miterlimit="10" x1="99.933" y1="38.846" x2="39.057" y2="99.722"></line><line fill="#000000" stroke="#1D1D1B" stroke-width="0.5" stroke-linecap="round" stroke-linejoin="round" stroke-miterlimit="10" x1="94.398" y1="33.312" x2="33.523" y2="94.188"></line><line fill="#000000" stroke="#1D1D1B" stroke-width="0.5" stroke-linecap="round" stroke-linejoin="round" stroke-miterlimit="10" x1="88.864" y1="27.777" x2="27.989" y2="88.653"></line><line fill="#000000" stroke="#1D1D1B" stroke-width="0.5" stroke-linecap="round" stroke-linejoin="round" stroke-miterlimit="10" x1="83.331" y1="22.244" x2="22.455" y2="83.119"></line><line fill="#000000" stroke="#1D1D1B" stroke-width="0.5" stroke-linecap="round" stroke-linejoin="round" stroke-miterlimit="10" x1="77.796" y1="16.71" x2="16.921" y2="77.585"></line><line fill="#000000" stroke="#1D1D1B" stroke-width="0.5" stroke-linecap="round" stroke-linejoin="round" stroke-miterlimit="10" x1="72.262" y1="11.176" x2="11.387" y2="72.052"></line><line fill="#000000" stroke="#1D1D1B" stroke-width="0.5" stroke-linecap="round" stroke-linejoin="round" stroke-miterlimit="10" x1="66.729" y1="5.642" x2="5.853" y2="66.518"></line><line fill="#000000" stroke="#1D1D1B" stroke-width="0.5" stroke-linecap="round" stroke-linejoin="round" stroke-miterlimit="10" x1="61.194" y1="0.107" x2="0.319" y2="60.983"></line><polyline fill="#000000" stroke="#1D1D1B" stroke-width="0.5" stroke-linecap="round" stroke-linejoin="round" stroke-miterlimit="10" points="    50.23,0 50.13,0.11 44.59,5.64 39.06,11.18 33.52,16.71 27.99,22.24 22.46,27.78 16.92,33.31 11.39,38.85 5.85,44.38 0.32,49.92     0.31,49.92 0,50.23   "></polyline></g><polyline display="inline" fill="#000000" stroke="#45B8EA" stroke-width="0.5" stroke-linecap="round" stroke-linejoin="round" stroke-miterlimit="10" points="   39.34,100 39.06,99.72 33.52,94.19 27.99,88.65 22.45,83.12 16.92,77.59 11.39,72.05 5.85,66.52 0.32,60.98 0,60.67  "></polyline><polyline display="inline" fill="#000000" stroke="#45B8EA" stroke-width="0.5" stroke-linecap="round" stroke-linejoin="round" stroke-miterlimit="10" points="   0,39.17 0.32,38.85 5.86,33.32 11.39,27.78 16.93,22.25 22.46,16.71 27.99,11.18 33.53,5.65 39.06,0.11 39.17,0  "></polyline><polyline display="inline" fill="#000000" stroke="#45B8EA" stroke-width="0.5" stroke-linecap="round" stroke-linejoin="round" stroke-miterlimit="10" points="   61.09,0 61.19,0.11 66.73,5.64 72.26,11.18 77.8,16.71 83.33,22.24 88.86,27.78 94.4,33.31 99.93,38.85 100,38.91  "></polyline><polyline display="inline" fill="#000000" stroke="#45B8EA" stroke-width="0.5" stroke-linecap="round" stroke-linejoin="round" stroke-miterlimit="10" points="   100,60.91 99.93,60.98 94.4,66.52 88.86,72.05 83.33,77.58 77.8,83.12 72.26,88.65 66.73,94.19 61.19,99.72 60.92,100  "></polyline><polyline display="inline" fill="#000000" stroke="#45B8EA" stroke-width="0.5" stroke-linecap="round" stroke-linejoin="round" stroke-miterlimit="10" points="   50.13,100 50.13,99.73 50.13,99.72 50.13,88.66 50.13,88.65 50.13,77.59 50.13,77.58 50.13,66.52 50.13,66.51 50.13,55.45    50.13,55.44 50.13,49.91 50.13,44.38 50.13,33.32 50.13,33.31 50.13,22.25 50.13,22.24 50.13,11.18 50.13,11.17 50.13,0.11  "></polyline><polyline display="inline" fill="#000000" stroke="#45B8EA" stroke-width="0.5" stroke-linecap="round" stroke-linejoin="round" stroke-miterlimit="10" points="   100,49.91 99.94,49.91 99.93,49.91 88.87,49.91 88.86,49.91 77.8,49.91 77.79,49.91 66.73,49.91 66.72,49.91 55.66,49.91    50.13,49.91 44.6,49.92 44.59,49.92 33.53,49.92 33.52,49.92 22.46,49.92 22.45,49.92 11.39,49.92 11.38,49.92 0.32,49.92    0.31,49.92 0,49.92  "></polyline></g><g><path fill="#000000" d="M100.326,50.429c0.006-0.046,0.012-0.093,0.004-0.142c-0.037-0.245-0.247-0.426-0.495-0.426h-0.236   l-15.457-5.186l-2.812-0.938c-0.015-0.013-0.024-0.029-0.042-0.041c-0.097-0.063-0.206-0.081-0.313-0.072l-14.157-4.756   c-0.103-0.035-0.214-0.034-0.317-0.001l-7.303,2.431l2.451-7.361c0.034-0.104,0.034-0.215,0-0.317L50.655,0.836V0.651   c0-0.242-0.174-0.45-0.413-0.492c-0.008-0.001-0.017,0.001-0.025,0c-0.074-0.025-0.151-0.04-0.232-0.027   c-0.245,0.036-0.427,0.246-0.427,0.494V0.86l-5.186,15.46c0,0,0,0.001,0,0.002l-0.937,2.809c-0.012,0.015-0.029,0.024-0.04,0.04   c-0.064,0.097-0.083,0.206-0.075,0.313l-4.756,14.159c-0.034,0.103-0.035,0.214,0,0.317l2.469,7.416l-7.395-2.461   c-0.103-0.033-0.214-0.034-0.317,0.001L0.54,49.91H0.354c-0.243,0-0.45,0.174-0.492,0.413c-0.001,0.009,0.001,0.019,0,0.027   c-0.025,0.073-0.039,0.15-0.027,0.231c0.037,0.245,0.247,0.426,0.495,0.426h0.236l15.457,5.186l2.813,0.938   c0.013,0.011,0.021,0.026,0.036,0.036c0.085,0.059,0.183,0.086,0.279,0.086c0.013,0,0.024-0.008,0.037-0.009L33.347,62   c0.052,0.018,0.105,0.026,0.159,0.026c0.053,0,0.106-0.009,0.158-0.025l7.232-2.408l-2.379,7.149c-0.034,0.104-0.034,0.215,0,0.317   l10.993,32.784v0.184c0,0.242,0.174,0.45,0.413,0.492c0.029,0.005,0.058,0.008,0.087,0.008c0.004,0,0.007-0.003,0.011-0.004   c0.03,0.006,0.054,0.028,0.085,0.028c0.024,0,0.049-0.002,0.074-0.006c0.245-0.036,0.426-0.246,0.426-0.494v-0.233l5.185-15.46   l0.939-2.817c0.011-0.014,0.028-0.02,0.038-0.034c0.064-0.097,0.083-0.206,0.075-0.313l4.756-14.159   c0.034-0.103,0.035-0.214,0.001-0.317l-2.398-7.203l7.323,2.438c0.051,0.017,0.104,0.025,0.158,0.025   c0.054,0,0.107-0.009,0.159-0.026l32.782-10.992h0.187c0.006-0.001,0.014-0.001,0.02,0c0.276,0,0.5-0.224,0.5-0.5   C100.331,50.448,100.326,50.439,100.326,50.429z M54.726,84.396l-0.879,2.62l-3.25-2.387l-0.001-3.142l0.994,0.699L54.726,84.396z    M52.544,90.897l-1.946-1.423l-0.001-3.603l2.915,2.141L52.544,90.897z M50.873,95.878l-0.27-0.237l-0.004-4.928l1.612,1.178   L50.873,95.878z M13.364,54.247l2.388-3.251l3.143-0.001l-2.909,4.132L13.364,54.247z M9.485,52.945l1.423-1.947h0.698l2.905-0.001   l-2.142,2.916L9.485,52.945z M4.505,51.273l0.237-0.27L9.668,51l-1.178,1.611L4.505,51.273z M47.621,9.782l1.947,1.423v0.236   l0.001,3.366l-2.916-2.141L47.621,9.782z M49.292,4.802l0.27,0.237l0.004,4.928l-1.612-1.178L49.292,4.802z M86.8,46.622   l-2.387,3.25l-3.143,0.001l2.908-4.131L86.8,46.622z M90.679,47.924l-1.423,1.946l-3.603,0.001l2.142-2.915L90.679,47.924z    M95.66,49.595l-0.238,0.271l-4.927,0.004l1.178-1.611L95.66,49.595z M57.874,57.513l-1.558-1.558l1.558-1.565V57.513z    M57.02,58.073h-2.829l1.417-1.411L57.02,58.073z M57.808,53.039l-5.034,5.034h-2.155l-0.011-7.158l7.266-0.01v2.068L57.808,53.039   z M44.119,43.634l-1.027-1.027h2.971l-1.488,1.483L44.119,43.634z M42.309,43.238l1.558,1.558l-1.558,1.565V43.238z M42.383,47.703   l5.097-5.097h2.084l0.01,7.229l-7.266,0.01v-2.068L42.383,47.703z M57.855,43.289v3.073l-1.533-1.539l0.456-0.456L57.855,43.289z    M55.615,44.116l-1.54-1.534h3.073L56.07,43.66L55.615,44.116z M57.794,47.719l0.061,0.061v2.082h-7.242v-7.279h2.044l0.071,0.07   L57.794,47.719z M42.309,57.501v-3.11l1.552,1.558l-0.456,0.456L42.309,57.501z M44.568,56.655l1.447,1.441h-2.887l0.985-0.985   L44.568,56.655z M42.388,53.053l-0.079-0.079V50.91h7.261v7.187h-2.138L42.388,53.053z M66.658,39.87l12.829,4.31l-2.348,3.312   c-0.16,0.225-0.107,0.537,0.119,0.697c0.087,0.062,0.188,0.092,0.289,0.092c0.157,0,0.311-0.073,0.408-0.211l2.522-3.557   l0.341,0.114c0.017,0.005,0.036,0.01,0.055,0.014l2.315,0.772l-3.141,4.461l-21.167,0.023v-2.299v-5.139L66.658,39.87z    M58.058,41.558H52.84h-2.221l0.006-6.393l0.027-31.189l9.994,29.805L58.058,41.558z M46.318,13.662l3.251,2.388l0.001,3.142   l-4.131-2.908L46.318,13.662z M43.876,20.975l3.312,2.349c0.087,0.062,0.188,0.092,0.289,0.092c0.157,0,0.311-0.073,0.408-0.211   c0.16-0.225,0.107-0.537-0.119-0.697l-3.557-2.522l0.114-0.341c0.006-0.017,0.01-0.035,0.014-0.054l0.772-2.315l0.572,0.402   l3.89,2.738l0.023,21.116h-2.245h-5.21l-2.572-7.727L43.876,20.975z M33.482,39.919l7.803,2.597v7.431L3.678,49.913L33.482,39.919z    M33.506,60.999l-12.83-4.31l2.349-3.312c0.16-0.225,0.107-0.537-0.119-0.697c-0.224-0.158-0.537-0.106-0.697,0.119l-2.523,3.557   l-0.341-0.114c-0.017-0.006-0.036-0.01-0.055-0.014l-2.315-0.771l3.141-4.462l21.185-0.023v2.202v5.229L33.506,60.999z    M42.076,59.214h5.267c0.007,0,0.013,0,0.02,0h2.183l-0.006,6.3l-0.027,31.19l-9.994-29.805L42.076,59.214z M56.289,79.705   l-3.312-2.349c-0.224-0.157-0.538-0.106-0.697,0.119c-0.16,0.225-0.107,0.537,0.119,0.697l3.557,2.522l-0.114,0.341   c-0.006,0.017-0.01,0.035-0.014,0.054l-0.772,2.315l-4.461-3.141L50.571,59.22h2.263h5.216l2.548,7.655L56.289,79.705z    M66.682,60.95l-7.803-2.597v-7.432l37.607,0.034L66.682,60.95z"></path></g></svg>